%TF.GenerationSoftware,KiCad,Pcbnew,(6.0.10)*%
%TF.CreationDate,2023-03-04T21:34:46+00:00*%
%TF.ProjectId,INS_CW2_ABB_2,494e535f-4357-4325-9f41-42425f322e6b,rev?*%
%TF.SameCoordinates,Original*%
%TF.FileFunction,Copper,L1,Top*%
%TF.FilePolarity,Positive*%
%FSLAX46Y46*%
G04 Gerber Fmt 4.6, Leading zero omitted, Abs format (unit mm)*
G04 Created by KiCad (PCBNEW (6.0.10)) date 2023-03-04 21:34:46*
%MOMM*%
%LPD*%
G01*
G04 APERTURE LIST*
G04 Aperture macros list*
%AMRoundRect*
0 Rectangle with rounded corners*
0 $1 Rounding radius*
0 $2 $3 $4 $5 $6 $7 $8 $9 X,Y pos of 4 corners*
0 Add a 4 corners polygon primitive as box body*
4,1,4,$2,$3,$4,$5,$6,$7,$8,$9,$2,$3,0*
0 Add four circle primitives for the rounded corners*
1,1,$1+$1,$2,$3*
1,1,$1+$1,$4,$5*
1,1,$1+$1,$6,$7*
1,1,$1+$1,$8,$9*
0 Add four rect primitives between the rounded corners*
20,1,$1+$1,$2,$3,$4,$5,0*
20,1,$1+$1,$4,$5,$6,$7,0*
20,1,$1+$1,$6,$7,$8,$9,0*
20,1,$1+$1,$8,$9,$2,$3,0*%
G04 Aperture macros list end*
%TA.AperFunction,SMDPad,CuDef*%
%ADD10RoundRect,0.160000X-0.160000X0.197500X-0.160000X-0.197500X0.160000X-0.197500X0.160000X0.197500X0*%
%TD*%
%TA.AperFunction,SMDPad,CuDef*%
%ADD11RoundRect,0.160000X0.197500X0.160000X-0.197500X0.160000X-0.197500X-0.160000X0.197500X-0.160000X0*%
%TD*%
%TA.AperFunction,SMDPad,CuDef*%
%ADD12R,0.900000X2.000000*%
%TD*%
%TA.AperFunction,SMDPad,CuDef*%
%ADD13R,2.000000X0.900000*%
%TD*%
%TA.AperFunction,SMDPad,CuDef*%
%ADD14R,1.750000X0.590000*%
%TD*%
%TA.AperFunction,ViaPad*%
%ADD15C,0.600000*%
%TD*%
%TA.AperFunction,Conductor*%
%ADD16C,0.250000*%
%TD*%
%TA.AperFunction,Conductor*%
%ADD17C,0.200000*%
%TD*%
%TA.AperFunction,Conductor*%
%ADD18C,0.300000*%
%TD*%
G04 APERTURE END LIST*
D10*
%TO.P,R2,1*%
%TO.N,/Rg_1_1*%
X120295500Y-78396500D03*
%TO.P,R2,2*%
%TO.N,/Rg_1_2*%
X120295500Y-79591500D03*
%TD*%
D11*
%TO.P,R1,1*%
%TO.N,/Err*%
X126555000Y-83820000D03*
%TO.P,R1,2*%
%TO.N,/DUT_1*%
X125360000Y-83820000D03*
%TD*%
D10*
%TO.P,R3,1*%
%TO.N,/Rg_2_1*%
X113157000Y-60071000D03*
%TO.P,R3,2*%
%TO.N,/Rg_2_2*%
X113157000Y-61266000D03*
%TD*%
D12*
%TO.P,J2,1,Pin_1*%
%TO.N,/Err*%
X138398000Y-70510000D03*
%TO.P,J2,2,Pin_2*%
%TO.N,/Edut*%
X136398000Y-67310000D03*
%TO.P,J2,3,Pin_3*%
%TO.N,/DUT_1*%
X134398000Y-70510000D03*
%TO.P,J2,4,Pin_4*%
%TO.N,/DAC*%
X132398000Y-67310000D03*
%TD*%
D13*
%TO.P,J1,1,Pin_1*%
%TO.N,/5V*%
X106263000Y-60903500D03*
%TO.P,J1,2,Pin_2*%
%TO.N,/3V3*%
X109463000Y-62903500D03*
%TO.P,J1,3,Pin_3*%
%TO.N,/GND*%
X106263000Y-64903500D03*
%TO.P,J1,4,Pin_4*%
%TO.N,/DAC*%
X109463000Y-66903500D03*
%TD*%
D14*
%TO.P,IC2,1,-IN*%
%TO.N,/DUT_1*%
X117983000Y-58801000D03*
%TO.P,IC2,2,RG_1*%
%TO.N,/Rg_2_1*%
X117983000Y-60071000D03*
%TO.P,IC2,3,RG_2*%
%TO.N,/Rg_2_2*%
X117983000Y-61341000D03*
%TO.P,IC2,4,+IN*%
%TO.N,/DAC*%
X117983000Y-62611000D03*
%TO.P,IC2,5,-VS*%
%TO.N,/GND*%
X123153000Y-62611000D03*
%TO.P,IC2,6,REF*%
X123153000Y-61341000D03*
%TO.P,IC2,7,VOUT*%
%TO.N,/Edut*%
X123153000Y-60071000D03*
%TO.P,IC2,8,+VS*%
%TO.N,/5V*%
X123153000Y-58801000D03*
%TD*%
%TO.P,IC1,1,-IN*%
%TO.N,/GND*%
X125558000Y-77216000D03*
%TO.P,IC1,2,RG_1*%
%TO.N,/Rg_1_1*%
X125558000Y-78486000D03*
%TO.P,IC1,3,RG_2*%
%TO.N,/Rg_1_2*%
X125558000Y-79756000D03*
%TO.P,IC1,4,+IN*%
%TO.N,/DUT_1*%
X125558000Y-81026000D03*
%TO.P,IC1,5,-VS*%
%TO.N,/GND*%
X130728000Y-81026000D03*
%TO.P,IC1,6,REF*%
X130728000Y-79756000D03*
%TO.P,IC1,7,VOUT*%
%TO.N,/Err*%
X130728000Y-78486000D03*
%TO.P,IC1,8,+VS*%
%TO.N,/5V*%
X130728000Y-77216000D03*
%TD*%
D15*
%TO.N,/5V*%
X133096000Y-77216000D03*
X125984000Y-58801000D03*
%TO.N,/DUT_1*%
X134366000Y-73279000D03*
X116078000Y-58801000D03*
%TO.N,/GND*%
X132842000Y-81026000D03*
X132842000Y-79756000D03*
X122936000Y-77216000D03*
X125857000Y-62611000D03*
X125857000Y-61341000D03*
X103124000Y-64897000D03*
%TD*%
D16*
%TO.N,/Rg_1_2*%
X120460000Y-79756000D02*
X120295500Y-79591500D01*
D17*
X125558000Y-79756000D02*
X120460000Y-79756000D01*
D16*
%TO.N,/Rg_1_1*%
X120385000Y-78486000D02*
X120295500Y-78396500D01*
D17*
X125558000Y-78486000D02*
X120385000Y-78486000D01*
D16*
%TO.N,/DAC*%
X117983000Y-64389000D02*
X120904000Y-67310000D01*
X120904000Y-67310000D02*
X132398000Y-67310000D01*
X117983000Y-62611000D02*
X117983000Y-64389000D01*
X114808000Y-62611000D02*
X117983000Y-62611000D01*
X113284000Y-64135000D02*
X114808000Y-62611000D01*
D18*
%TO.N,/GND*%
X125558000Y-77216000D02*
X122936000Y-77216000D01*
D16*
%TO.N,/Rg_2_2*%
X113867000Y-61976000D02*
X113157000Y-61266000D01*
X114935000Y-61976000D02*
X113867000Y-61976000D01*
X115570000Y-61341000D02*
X114935000Y-61976000D01*
X117983000Y-61341000D02*
X115570000Y-61341000D01*
%TO.N,/5V*%
X130728000Y-77216000D02*
X133096000Y-77216000D01*
X123153000Y-58801000D02*
X125984000Y-58801000D01*
%TO.N,/DUT_1*%
X117602000Y-74803000D02*
X118491000Y-73914000D01*
X118491000Y-73914000D02*
X133731000Y-73914000D01*
X133731000Y-73914000D02*
X134366000Y-73279000D01*
X117602000Y-80137000D02*
X117602000Y-74803000D01*
X118491000Y-81026000D02*
X117602000Y-80137000D01*
X125558000Y-81026000D02*
X118491000Y-81026000D01*
%TO.N,/Edut*%
X135763000Y-65151000D02*
X136398000Y-65786000D01*
X133477000Y-65151000D02*
X135763000Y-65151000D01*
X136398000Y-65786000D02*
X136398000Y-67310000D01*
X128397000Y-60071000D02*
X133477000Y-65151000D01*
X123153000Y-60071000D02*
X128397000Y-60071000D01*
D17*
%TO.N,/Err*%
X133223000Y-83820000D02*
X126365000Y-83820000D01*
D16*
X139573000Y-77470000D02*
X133223000Y-83820000D01*
X139573000Y-76454000D02*
X139573000Y-77470000D01*
X138430000Y-75311000D02*
X139573000Y-76454000D01*
X138398000Y-75216000D02*
X138398000Y-70510000D01*
X135128000Y-78486000D02*
X138398000Y-75216000D01*
X130728000Y-78486000D02*
X135128000Y-78486000D01*
%TO.N,/DUT_1*%
X125558000Y-83812000D02*
X125550000Y-83820000D01*
D17*
X125558000Y-81026000D02*
X125558000Y-83812000D01*
D16*
%TO.N,/Rg_2_1*%
X117983000Y-60071000D02*
X113157000Y-60071000D01*
%TO.N,/DUT_1*%
X134398000Y-73247000D02*
X134366000Y-73279000D01*
X134398000Y-70510000D02*
X134398000Y-73247000D01*
X117983000Y-58801000D02*
X116078000Y-58801000D01*
%TO.N,/5V*%
X122682000Y-57531000D02*
X123153000Y-58002000D01*
X123153000Y-58002000D02*
X123153000Y-58801000D01*
X104775000Y-57531000D02*
X122682000Y-57531000D01*
X104464500Y-60903500D02*
X104013000Y-60452000D01*
X106263000Y-60903500D02*
X104464500Y-60903500D01*
X104013000Y-60452000D02*
X104013000Y-58293000D01*
X104013000Y-58293000D02*
X104775000Y-57531000D01*
%TO.N,/DAC*%
X113284000Y-66040000D02*
X113284000Y-64135000D01*
X112420500Y-66903500D02*
X113284000Y-66040000D01*
X109463000Y-66903500D02*
X112420500Y-66903500D01*
D18*
%TO.N,/GND*%
X130728000Y-81026000D02*
X132842000Y-81026000D01*
X130728000Y-79756000D02*
X132842000Y-79756000D01*
X123153000Y-62611000D02*
X125857000Y-62611000D01*
X123153000Y-61341000D02*
X125857000Y-61341000D01*
X103130500Y-64903500D02*
X103124000Y-64897000D01*
X106263000Y-64903500D02*
X103130500Y-64903500D01*
%TD*%
M02*
