%TF.GenerationSoftware,KiCad,Pcbnew,(6.0.10)*%
%TF.CreationDate,2023-03-04T21:34:46+00:00*%
%TF.ProjectId,INS_CW2_ABB_2,494e535f-4357-4325-9f41-42425f322e6b,rev?*%
%TF.SameCoordinates,Original*%
%TF.FileFunction,Copper,L2,Bot*%
%TF.FilePolarity,Positive*%
%FSLAX46Y46*%
G04 Gerber Fmt 4.6, Leading zero omitted, Abs format (unit mm)*
G04 Created by KiCad (PCBNEW (6.0.10)) date 2023-03-04 21:34:46*
%MOMM*%
%LPD*%
G01*
G04 APERTURE LIST*
%TA.AperFunction,ViaPad*%
%ADD10C,0.600000*%
%TD*%
%TA.AperFunction,Conductor*%
%ADD11C,0.250000*%
%TD*%
G04 APERTURE END LIST*
D10*
%TO.N,/5V*%
X133096000Y-77216000D03*
X125984000Y-58801000D03*
%TO.N,/DUT_1*%
X134366000Y-73279000D03*
X116078000Y-58801000D03*
%TO.N,/GND*%
X132842000Y-81026000D03*
X132842000Y-79756000D03*
X122936000Y-77216000D03*
X125857000Y-62611000D03*
X125857000Y-61341000D03*
X103124000Y-64897000D03*
%TD*%
D11*
%TO.N,/DUT_1*%
X114935000Y-62865000D02*
X125349000Y-73279000D01*
X114935000Y-59436000D02*
X114935000Y-62865000D01*
X125349000Y-73279000D02*
X134366000Y-73279000D01*
X115570000Y-58801000D02*
X114935000Y-59436000D01*
X116078000Y-58801000D02*
X115570000Y-58801000D01*
%TO.N,/5V*%
X139954000Y-77216000D02*
X133096000Y-77216000D01*
X142240000Y-74930000D02*
X139954000Y-77216000D01*
X142240000Y-60833000D02*
X142240000Y-74930000D01*
X140208000Y-58801000D02*
X142240000Y-60833000D01*
X125984000Y-58801000D02*
X140208000Y-58801000D01*
%TD*%
%TA.AperFunction,Conductor*%
%TO.N,/GND*%
G36*
X148337676Y-46481662D02*
G01*
X148405741Y-46501848D01*
X148452089Y-46555629D01*
X148463335Y-46607325D01*
X148589661Y-93853320D01*
X148569841Y-93921494D01*
X148516310Y-93968130D01*
X148463321Y-93979657D01*
X101851654Y-93853338D01*
X101783588Y-93833151D01*
X101737241Y-93779369D01*
X101726000Y-93728349D01*
X101450767Y-59415943D01*
X114296780Y-59415943D01*
X114297526Y-59423835D01*
X114300941Y-59459961D01*
X114301500Y-59471819D01*
X114301500Y-62786233D01*
X114300973Y-62797416D01*
X114299298Y-62804909D01*
X114299547Y-62812835D01*
X114299547Y-62812836D01*
X114301438Y-62872986D01*
X114301500Y-62876945D01*
X114301500Y-62904856D01*
X114301997Y-62908790D01*
X114301997Y-62908791D01*
X114302005Y-62908856D01*
X114302938Y-62920693D01*
X114304327Y-62964889D01*
X114309978Y-62984339D01*
X114313987Y-63003700D01*
X114316526Y-63023797D01*
X114319445Y-63031168D01*
X114319445Y-63031170D01*
X114332804Y-63064912D01*
X114336649Y-63076142D01*
X114348982Y-63118593D01*
X114353015Y-63125412D01*
X114353017Y-63125417D01*
X114359293Y-63136028D01*
X114367988Y-63153776D01*
X114375448Y-63172617D01*
X114380110Y-63179033D01*
X114380110Y-63179034D01*
X114401436Y-63208387D01*
X114407952Y-63218307D01*
X114430458Y-63256362D01*
X114444779Y-63270683D01*
X114457619Y-63285716D01*
X114469528Y-63302107D01*
X114475634Y-63307158D01*
X114503605Y-63330298D01*
X114512384Y-63338288D01*
X124845348Y-73671253D01*
X124852888Y-73679539D01*
X124857000Y-73686018D01*
X124862777Y-73691443D01*
X124906651Y-73732643D01*
X124909493Y-73735398D01*
X124929230Y-73755135D01*
X124932427Y-73757615D01*
X124941447Y-73765318D01*
X124973679Y-73795586D01*
X124980625Y-73799405D01*
X124980628Y-73799407D01*
X124991434Y-73805348D01*
X125007953Y-73816199D01*
X125023959Y-73828614D01*
X125031228Y-73831759D01*
X125031232Y-73831762D01*
X125064537Y-73846174D01*
X125075187Y-73851391D01*
X125113940Y-73872695D01*
X125121615Y-73874666D01*
X125121616Y-73874666D01*
X125133562Y-73877733D01*
X125152267Y-73884137D01*
X125170855Y-73892181D01*
X125178678Y-73893420D01*
X125178688Y-73893423D01*
X125214524Y-73899099D01*
X125226144Y-73901505D01*
X125261289Y-73910528D01*
X125268970Y-73912500D01*
X125289224Y-73912500D01*
X125308934Y-73914051D01*
X125328943Y-73917220D01*
X125336835Y-73916474D01*
X125372961Y-73913059D01*
X125384819Y-73912500D01*
X133819903Y-73912500D01*
X133888896Y-73933068D01*
X133999159Y-74005222D01*
X134005763Y-74007678D01*
X134005765Y-74007679D01*
X134162558Y-74065990D01*
X134162560Y-74065990D01*
X134169168Y-74068448D01*
X134252995Y-74079633D01*
X134341980Y-74091507D01*
X134341984Y-74091507D01*
X134348961Y-74092438D01*
X134355972Y-74091800D01*
X134355976Y-74091800D01*
X134498459Y-74078832D01*
X134529600Y-74075998D01*
X134536302Y-74073820D01*
X134536304Y-74073820D01*
X134695409Y-74022124D01*
X134695412Y-74022123D01*
X134702108Y-74019947D01*
X134857912Y-73927069D01*
X134989266Y-73801982D01*
X135089643Y-73650902D01*
X135154055Y-73481338D01*
X135179299Y-73301717D01*
X135179616Y-73279000D01*
X135159397Y-73098745D01*
X135099745Y-72927448D01*
X135003626Y-72773624D01*
X134998664Y-72768627D01*
X134880778Y-72649915D01*
X134880774Y-72649912D01*
X134875815Y-72644918D01*
X134864697Y-72637862D01*
X134816538Y-72607300D01*
X134722666Y-72547727D01*
X134693463Y-72537328D01*
X134558425Y-72489243D01*
X134558420Y-72489242D01*
X134551790Y-72486881D01*
X134544802Y-72486048D01*
X134544799Y-72486047D01*
X134421698Y-72471368D01*
X134371680Y-72465404D01*
X134364677Y-72466140D01*
X134364676Y-72466140D01*
X134198288Y-72483628D01*
X134198286Y-72483629D01*
X134191288Y-72484364D01*
X134019579Y-72542818D01*
X133883039Y-72626819D01*
X133817019Y-72645500D01*
X125663594Y-72645500D01*
X125595473Y-72625498D01*
X125574499Y-72608595D01*
X115605405Y-62639500D01*
X115571379Y-62577188D01*
X115568500Y-62550405D01*
X115568500Y-59750594D01*
X115588502Y-59682473D01*
X115605405Y-59661499D01*
X115674752Y-59592152D01*
X115737064Y-59558126D01*
X115807766Y-59563150D01*
X115881168Y-59590448D01*
X115964995Y-59601633D01*
X116053980Y-59613507D01*
X116053984Y-59613507D01*
X116060961Y-59614438D01*
X116067972Y-59613800D01*
X116067976Y-59613800D01*
X116210459Y-59600832D01*
X116241600Y-59597998D01*
X116248302Y-59595820D01*
X116248304Y-59595820D01*
X116407409Y-59544124D01*
X116407412Y-59544123D01*
X116414108Y-59541947D01*
X116551641Y-59459961D01*
X116563860Y-59452677D01*
X116563862Y-59452676D01*
X116569912Y-59449069D01*
X116701266Y-59323982D01*
X116801643Y-59172902D01*
X116858161Y-59024120D01*
X116863555Y-59009920D01*
X116863556Y-59009918D01*
X116866055Y-59003338D01*
X116867216Y-58995079D01*
X116890748Y-58827639D01*
X116890748Y-58827636D01*
X116891299Y-58823717D01*
X116891616Y-58801000D01*
X116890342Y-58789640D01*
X125170463Y-58789640D01*
X125188163Y-58970160D01*
X125245418Y-59142273D01*
X125249065Y-59148295D01*
X125249066Y-59148297D01*
X125311011Y-59250580D01*
X125339380Y-59297424D01*
X125344269Y-59302487D01*
X125344270Y-59302488D01*
X125359357Y-59318111D01*
X125465382Y-59427902D01*
X125617159Y-59527222D01*
X125623763Y-59529678D01*
X125623765Y-59529679D01*
X125780558Y-59587990D01*
X125780560Y-59587990D01*
X125787168Y-59590448D01*
X125870995Y-59601633D01*
X125959980Y-59613507D01*
X125959984Y-59613507D01*
X125966961Y-59614438D01*
X125973972Y-59613800D01*
X125973976Y-59613800D01*
X126116459Y-59600832D01*
X126147600Y-59597998D01*
X126154302Y-59595820D01*
X126154304Y-59595820D01*
X126313409Y-59544124D01*
X126313412Y-59544123D01*
X126320108Y-59541947D01*
X126470540Y-59452271D01*
X126535058Y-59434500D01*
X139893406Y-59434500D01*
X139961527Y-59454502D01*
X139982501Y-59471405D01*
X141569595Y-61058500D01*
X141603621Y-61120812D01*
X141606500Y-61147595D01*
X141606500Y-74615405D01*
X141586498Y-74683526D01*
X141569595Y-74704500D01*
X139728500Y-76545595D01*
X139666188Y-76579621D01*
X139639405Y-76582500D01*
X133643338Y-76582500D01*
X133575824Y-76562885D01*
X133542583Y-76541790D01*
X133452666Y-76484727D01*
X133423463Y-76474328D01*
X133288425Y-76426243D01*
X133288420Y-76426242D01*
X133281790Y-76423881D01*
X133274802Y-76423048D01*
X133274799Y-76423047D01*
X133151698Y-76408368D01*
X133101680Y-76402404D01*
X133094677Y-76403140D01*
X133094676Y-76403140D01*
X132928288Y-76420628D01*
X132928286Y-76420629D01*
X132921288Y-76421364D01*
X132749579Y-76479818D01*
X132743575Y-76483512D01*
X132601095Y-76571166D01*
X132601092Y-76571168D01*
X132595088Y-76574862D01*
X132590053Y-76579793D01*
X132590050Y-76579795D01*
X132587288Y-76582500D01*
X132465493Y-76701771D01*
X132367235Y-76854238D01*
X132305197Y-77024685D01*
X132282463Y-77204640D01*
X132300163Y-77385160D01*
X132357418Y-77557273D01*
X132361065Y-77563295D01*
X132361066Y-77563297D01*
X132443376Y-77699207D01*
X132451380Y-77712424D01*
X132456269Y-77717487D01*
X132456270Y-77717488D01*
X132463119Y-77724580D01*
X132577382Y-77842902D01*
X132729159Y-77942222D01*
X132735763Y-77944678D01*
X132735765Y-77944679D01*
X132892558Y-78002990D01*
X132892560Y-78002990D01*
X132899168Y-78005448D01*
X132982995Y-78016633D01*
X133071980Y-78028507D01*
X133071984Y-78028507D01*
X133078961Y-78029438D01*
X133085972Y-78028800D01*
X133085976Y-78028800D01*
X133228459Y-78015832D01*
X133259600Y-78012998D01*
X133266302Y-78010820D01*
X133266304Y-78010820D01*
X133425409Y-77959124D01*
X133425412Y-77959123D01*
X133432108Y-77956947D01*
X133582540Y-77867271D01*
X133647058Y-77849500D01*
X139875233Y-77849500D01*
X139886416Y-77850027D01*
X139893909Y-77851702D01*
X139901835Y-77851453D01*
X139901836Y-77851453D01*
X139961986Y-77849562D01*
X139965945Y-77849500D01*
X139993856Y-77849500D01*
X139997791Y-77849003D01*
X139997856Y-77848995D01*
X140009693Y-77848062D01*
X140041951Y-77847048D01*
X140045970Y-77846922D01*
X140053889Y-77846673D01*
X140073343Y-77841021D01*
X140092700Y-77837013D01*
X140104930Y-77835468D01*
X140104931Y-77835468D01*
X140112797Y-77834474D01*
X140120168Y-77831555D01*
X140120170Y-77831555D01*
X140153912Y-77818196D01*
X140165142Y-77814351D01*
X140199983Y-77804229D01*
X140199984Y-77804229D01*
X140207593Y-77802018D01*
X140214412Y-77797985D01*
X140214417Y-77797983D01*
X140225028Y-77791707D01*
X140242776Y-77783012D01*
X140261617Y-77775552D01*
X140297387Y-77749564D01*
X140307307Y-77743048D01*
X140338535Y-77724580D01*
X140338538Y-77724578D01*
X140345362Y-77720542D01*
X140359683Y-77706221D01*
X140374717Y-77693380D01*
X140384694Y-77686131D01*
X140391107Y-77681472D01*
X140419298Y-77647395D01*
X140427288Y-77638616D01*
X142632247Y-75433657D01*
X142640537Y-75426113D01*
X142647018Y-75422000D01*
X142693659Y-75372332D01*
X142696413Y-75369491D01*
X142716134Y-75349770D01*
X142718612Y-75346575D01*
X142726318Y-75337553D01*
X142751158Y-75311101D01*
X142756586Y-75305321D01*
X142766346Y-75287568D01*
X142777199Y-75271045D01*
X142784753Y-75261306D01*
X142789613Y-75255041D01*
X142807176Y-75214457D01*
X142812383Y-75203827D01*
X142833695Y-75165060D01*
X142835666Y-75157383D01*
X142835668Y-75157378D01*
X142838732Y-75145442D01*
X142845138Y-75126730D01*
X142850033Y-75115419D01*
X142853181Y-75108145D01*
X142854421Y-75100317D01*
X142854423Y-75100310D01*
X142860099Y-75064476D01*
X142862505Y-75052856D01*
X142871528Y-75017711D01*
X142871528Y-75017710D01*
X142873500Y-75010030D01*
X142873500Y-74989776D01*
X142875051Y-74970065D01*
X142876980Y-74957886D01*
X142878220Y-74950057D01*
X142874059Y-74906038D01*
X142873500Y-74894181D01*
X142873500Y-60911767D01*
X142874027Y-60900584D01*
X142875702Y-60893091D01*
X142873562Y-60825000D01*
X142873500Y-60821043D01*
X142873500Y-60793144D01*
X142872996Y-60789153D01*
X142872063Y-60777311D01*
X142870923Y-60741036D01*
X142870674Y-60733111D01*
X142868462Y-60725497D01*
X142868461Y-60725492D01*
X142865023Y-60713659D01*
X142861012Y-60694295D01*
X142859467Y-60682064D01*
X142858474Y-60674203D01*
X142855557Y-60666836D01*
X142855556Y-60666831D01*
X142842198Y-60633092D01*
X142838354Y-60621865D01*
X142828230Y-60587022D01*
X142826018Y-60579407D01*
X142815707Y-60561972D01*
X142807012Y-60544224D01*
X142799552Y-60525383D01*
X142773564Y-60489613D01*
X142767048Y-60479693D01*
X142748580Y-60448465D01*
X142748578Y-60448462D01*
X142744542Y-60441638D01*
X142730221Y-60427317D01*
X142717380Y-60412283D01*
X142710131Y-60402306D01*
X142705472Y-60395893D01*
X142671395Y-60367702D01*
X142662616Y-60359712D01*
X140711652Y-58408747D01*
X140704112Y-58400461D01*
X140700000Y-58393982D01*
X140650348Y-58347356D01*
X140647507Y-58344602D01*
X140627770Y-58324865D01*
X140624573Y-58322385D01*
X140615551Y-58314680D01*
X140611397Y-58310779D01*
X140583321Y-58284414D01*
X140576375Y-58280595D01*
X140576372Y-58280593D01*
X140565566Y-58274652D01*
X140549047Y-58263801D01*
X140548583Y-58263441D01*
X140533041Y-58251386D01*
X140525772Y-58248241D01*
X140525768Y-58248238D01*
X140492463Y-58233826D01*
X140481813Y-58228609D01*
X140443060Y-58207305D01*
X140423437Y-58202267D01*
X140404734Y-58195863D01*
X140393420Y-58190967D01*
X140393419Y-58190967D01*
X140386145Y-58187819D01*
X140378322Y-58186580D01*
X140378312Y-58186577D01*
X140342476Y-58180901D01*
X140330856Y-58178495D01*
X140295711Y-58169472D01*
X140295710Y-58169472D01*
X140288030Y-58167500D01*
X140267776Y-58167500D01*
X140248065Y-58165949D01*
X140235886Y-58164020D01*
X140228057Y-58162780D01*
X140220165Y-58163526D01*
X140184039Y-58166941D01*
X140172181Y-58167500D01*
X126531338Y-58167500D01*
X126463824Y-58147885D01*
X126430583Y-58126790D01*
X126340666Y-58069727D01*
X126311463Y-58059328D01*
X126176425Y-58011243D01*
X126176420Y-58011242D01*
X126169790Y-58008881D01*
X126162802Y-58008048D01*
X126162799Y-58008047D01*
X126039698Y-57993368D01*
X125989680Y-57987404D01*
X125982677Y-57988140D01*
X125982676Y-57988140D01*
X125816288Y-58005628D01*
X125816286Y-58005629D01*
X125809288Y-58006364D01*
X125637579Y-58064818D01*
X125631575Y-58068512D01*
X125489095Y-58156166D01*
X125489092Y-58156168D01*
X125483088Y-58159862D01*
X125478053Y-58164793D01*
X125478050Y-58164795D01*
X125358525Y-58281843D01*
X125353493Y-58286771D01*
X125255235Y-58439238D01*
X125252826Y-58445858D01*
X125252824Y-58445861D01*
X125195606Y-58603066D01*
X125193197Y-58609685D01*
X125170463Y-58789640D01*
X116890342Y-58789640D01*
X116871397Y-58620745D01*
X116869080Y-58614091D01*
X116814064Y-58456106D01*
X116814062Y-58456103D01*
X116811745Y-58449448D01*
X116773696Y-58388557D01*
X116719359Y-58301598D01*
X116715626Y-58295624D01*
X116687635Y-58267437D01*
X116592778Y-58171915D01*
X116592774Y-58171912D01*
X116587815Y-58166918D01*
X116576697Y-58159862D01*
X116528538Y-58129300D01*
X116434666Y-58069727D01*
X116405463Y-58059328D01*
X116270425Y-58011243D01*
X116270420Y-58011242D01*
X116263790Y-58008881D01*
X116256802Y-58008048D01*
X116256799Y-58008047D01*
X116133698Y-57993368D01*
X116083680Y-57987404D01*
X116076677Y-57988140D01*
X116076676Y-57988140D01*
X115910288Y-58005628D01*
X115910286Y-58005629D01*
X115903288Y-58006364D01*
X115731579Y-58064818D01*
X115594912Y-58148897D01*
X115536799Y-58167331D01*
X115534112Y-58167500D01*
X115530144Y-58167500D01*
X115526154Y-58168004D01*
X115514320Y-58168936D01*
X115470111Y-58170326D01*
X115462495Y-58172539D01*
X115462493Y-58172539D01*
X115450652Y-58175979D01*
X115431293Y-58179988D01*
X115429983Y-58180154D01*
X115411203Y-58182526D01*
X115403837Y-58185442D01*
X115403831Y-58185444D01*
X115370098Y-58198800D01*
X115358868Y-58202645D01*
X115342828Y-58207305D01*
X115316407Y-58214981D01*
X115309584Y-58219016D01*
X115298966Y-58225295D01*
X115281213Y-58233992D01*
X115273568Y-58237019D01*
X115262383Y-58241448D01*
X115248705Y-58251386D01*
X115226612Y-58267437D01*
X115216695Y-58273951D01*
X115178638Y-58296458D01*
X115164317Y-58310779D01*
X115149284Y-58323619D01*
X115132893Y-58335528D01*
X115106516Y-58367413D01*
X115104712Y-58369593D01*
X115096722Y-58378374D01*
X114542742Y-58932353D01*
X114534463Y-58939887D01*
X114527982Y-58944000D01*
X114497140Y-58976844D01*
X114481357Y-58993651D01*
X114478602Y-58996493D01*
X114458865Y-59016230D01*
X114456385Y-59019427D01*
X114448682Y-59028447D01*
X114418414Y-59060679D01*
X114414595Y-59067625D01*
X114414593Y-59067628D01*
X114408652Y-59078434D01*
X114397801Y-59094953D01*
X114385386Y-59110959D01*
X114382241Y-59118228D01*
X114382238Y-59118232D01*
X114367826Y-59151537D01*
X114362609Y-59162187D01*
X114341305Y-59200940D01*
X114339334Y-59208615D01*
X114339334Y-59208616D01*
X114336267Y-59220562D01*
X114329863Y-59239266D01*
X114321819Y-59257855D01*
X114320580Y-59265678D01*
X114320577Y-59265688D01*
X114314901Y-59301524D01*
X114312495Y-59313144D01*
X114308465Y-59328841D01*
X114301500Y-59355970D01*
X114301500Y-59376224D01*
X114299949Y-59395934D01*
X114296780Y-59415943D01*
X101450767Y-59415943D01*
X101347022Y-46482354D01*
X101366477Y-46414075D01*
X101419758Y-46367153D01*
X101473357Y-46355343D01*
X148337676Y-46481662D01*
G37*
%TD.AperFunction*%
%TD*%
M02*
